# xmcd
#
# Track frame offsets:
#	150
#	13895
#	28653
#	43572
#	59850
#	73615
#	87211
#	101532
#	113763
#	127178
#	138815
#	152829
#	163030
#	174063
#	185708
#
# Disc length: 2623 seconds
#
# Revision: 1
# Processed by: cddbd v1.5.2PL0 Copyright (c) Steve Scherf et al.
# Submitted via: EasyCDDAExtractor 16.0.8.1
#
DISCID=cd0a3d0f
DTITLE=Teodoro and Sampaio - Réu apaixonado
DYEAR=2015
DGENRE=Sertanejo
TTITLE0=Ela é safada
TTITLE1=Telefone no ar
TTITLE2=Nóis tá na fita
TTITLE3=Réu apaixonado
TTITLE4=Porteiro
TTITLE5=Barraqueira
TTITLE6=Amargo prazer
TTITLE7=É só ela pra dar jeito
TTITLE8=Quarto de saudade
TTITLE9=Enchendo a cara
TTITLE10=Homem sem palavra
TTITLE11=Truco na casa do João
TTITLE12=Tem bicho comendo homem
TTITLE13=Voltar pra Goiás
TTITLE14=A mulherada paga
EXTD=
EXTT0=
EXTT1=
EXTT2=
EXTT3=
EXTT4=
EXTT5=
EXTT6=
EXTT7=
EXTT8=
EXTT9=
EXTT10=
EXTT11=
EXTT12=
EXTT13=
EXTT14=
PLAYORDER=
